# This file uses centimeters as units for non-parametric coordinates.

v -13.571188 -0.104575 8.658641
v 14.869487 -0.104575 8.658641
v -13.571188 9.627858 8.658641
v 14.869487 9.627858 8.658641
v -13.571188 9.627858 8.469293
v 14.869487 9.627858 8.469293
v -13.571188 -0.104575 8.469293
v 14.869487 -0.104575 8.469293
vt 0.997643 0.329831
vt 0.670165 0.329831
vt 0.670165 0.002353
vt 0.997643 0.002353
vt 0.664109 0.670531
vt 0.991586 0.670531
vt 0.991586 0.998008
vt 0.664109 0.998008
vt 0.001991 0.001992
vt 0.329468 0.001992
vt 0.329468 0.329470
vt 0.001991 0.329470
vt 0.329014 0.664745
vt 0.329014 0.337268
vt 0.656491 0.337268
vt 0.656491 0.664745
vt 0.670165 0.337084
vt 0.997642 0.337084
vt 0.997642 0.664561
vt 0.670165 0.664561
vt 0.335070 0.002174
vt 0.662547 0.002174
vt 0.662547 0.329652
vt 0.335070 0.329652
vn 0.000000 0.000000 1.000000
vn 0.000000 0.000000 1.000000
vn 0.000000 0.000000 1.000000
vn 0.000000 0.000000 1.000000
vn 0.000000 1.000000 0.000000
vn 0.000000 1.000000 0.000000
vn 0.000000 1.000000 0.000000
vn 0.000000 1.000000 0.000000
vn 0.000000 0.000000 -1.000000
vn 0.000000 0.000000 -1.000000
vn 0.000000 0.000000 -1.000000
vn 0.000000 0.000000 -1.000000
vn 0.000000 -1.000000 0.000000
vn 0.000000 -1.000000 0.000000
vn 0.000000 -1.000000 0.000000
vn 0.000000 -1.000000 0.000000
vn 1.000000 0.000000 0.000000
vn 1.000000 0.000000 0.000000
vn 1.000000 0.000000 0.000000
vn 1.000000 0.000000 0.000000
vn -1.000000 0.000000 0.000000
vn -1.000000 0.000000 0.000000
vn -1.000000 0.000000 0.000000
vn -1.000000 0.000000 0.000000
s off
g mur1
f 1/17/1 2/18/2 4/19/3 3/20/4
f 3/9/5 4/10/6 6/11/7 5/12/8
f 5/21/9 6/22/10 8/23/11 7/24/12
f 7/13/13 8/14/14 2/15/15 1/16/16
f 2/1/17 8/2/18 6/3/19 4/4/20
f 7/5/21 1/6/22 3/7/23 5/8/24
