# This file uses centimeters as units for non-parametric coordinates.

v -19.931440 -0.104575 4.812831
v -19.931440 -0.104575 -6.278157
v -19.931440 9.627858 4.812831
v -19.931440 9.627858 -6.278157
v -20.120789 9.627858 4.812831
v -20.120789 9.627858 -6.278157
v -20.120789 -0.104575 4.812831
v -20.120789 -0.104575 -6.278157
vt 0.329574 0.998008
vt 0.001325 0.998008
vt 0.001325 0.669758
vt 0.329574 0.669758
vt 0.335397 0.998008
vt 0.335397 0.669758
vt 0.663647 0.669758
vt 0.663647 0.998008
vt 0.335397 0.001992
vt 0.663647 0.001992
vt 0.663647 0.330242
vt 0.335397 0.330242
vt 0.335397 0.335874
vt 0.663647 0.335874
vt 0.663647 0.664124
vt 0.335397 0.664124
vt 0.001325 0.001992
vt 0.329574 0.001992
vt 0.329574 0.330242
vt 0.001325 0.330242
vt 0.001325 0.335873
vt 0.329574 0.335873
vt 0.329574 0.664123
vt 0.001325 0.664123
vn 1.000000 0.000000 0.000000
vn 1.000000 0.000000 0.000000
vn 1.000000 0.000000 0.000000
vn 1.000000 0.000000 0.000000
vn 0.000000 1.000000 0.000000
vn 0.000000 1.000000 0.000000
vn 0.000000 1.000000 0.000000
vn 0.000000 1.000000 0.000000
vn -1.000000 0.000000 -0.000000
vn -1.000000 0.000000 -0.000000
vn -1.000000 0.000000 -0.000000
vn -1.000000 0.000000 -0.000000
vn 0.000000 -1.000000 0.000000
vn 0.000000 -1.000000 0.000000
vn 0.000000 -1.000000 0.000000
vn 0.000000 -1.000000 0.000000
vn 0.000000 0.000000 -1.000000
vn 0.000000 0.000000 -1.000000
vn 0.000000 0.000000 -1.000000
vn 0.000000 0.000000 -1.000000
vn 0.000000 0.000000 1.000000
vn 0.000000 0.000000 1.000000
vn 0.000000 0.000000 1.000000
vn 0.000000 0.000000 1.000000
s off
g mur3
f 1/17/1 2/18/2 4/19/3 3/20/4
f 3/9/5 4/10/6 6/11/7 5/12/8
f 5/21/9 6/22/10 8/23/11 7/24/12
f 7/13/13 8/14/14 2/15/15 1/16/16
f 2/1/17 8/2/18 6/3/19 4/4/20
f 7/5/21 1/6/22 3/7/23 5/8/24
